<svg width="473" height="311" viewBox="0 0 473 311" fill="none" xmlns="http://www.w3.org/2000/svg">
<g opacity="0.22">
<path opacity="0.3" d="M472.088 -67.6295C467.766 -65.784 462.313 -65.9144 457.659 -66.5973C452.904 -67.2427 448.449 -68.5026 443.997 -69.9127C435.076 -72.7529 426.122 -76.3224 414.12 -78.7537C389.995 -83.74 370.128 -72.5849 361.705 -68.6396C357.876 -66.8316 351.797 -63.8809 346.765 -61.1844L343.511 -59.4405C351.467 -67.7975 360.193 -72.2799 369.037 -75.8141C378.744 -79.7528 388.877 -82.4095 400.301 -89.5508C407.901 -94.3669 413.336 -100.405 416.027 -106.05C418.844 -111.66 418.882 -116.706 417.991 -120.196C417.24 -123.699 415.186 -126.018 413.907 -127.366C412.523 -128.734 411.482 -129.273 411.482 -129.273C409.715 -121.434 403.724 -116.989 397.4 -114.489C390.921 -111.888 383.817 -110.707 375.176 -107.562C366.512 -104.455 360.291 -98.6173 356.109 -92.6208C351.887 -86.609 349.793 -80.5396 348.309 -77.1358C346.987 -74.0658 345.055 -69.0551 343.686 -64.796C342.956 -62.4023 342.305 -60.2716 341.87 -58.8504C327.689 -56.9938 313.591 -54.7143 299.577 -52.0119C305.483 -58.3023 311.634 -62.4376 317.978 -66.3498C325.856 -71.2654 334.272 -75.9843 341.547 -84.6463C351.119 -96.4777 350.468 -106.815 347.791 -112.449C345.025 -118.262 340.816 -120.432 340.816 -120.432C339.032 -113.693 334.432 -109.381 329.282 -105.995C324.064 -102.569 318.271 -99.9987 312.25 -95.9893C306.244 -92.0108 303.378 -86.4034 301.634 -80.6391C299.882 -74.9278 299.424 -69.2054 298.779 -65.9674C298.101 -62.4045 296.834 -55.7472 295.986 -51.298C293.576 -50.8161 291.169 -50.3255 288.764 -49.8127C285.428 -49.5806 281.436 -49.017 278.333 -48.0445C277.085 -47.6349 275.865 -47.1611 274.68 -46.6255C271.872 -45.9624 269.059 -45.2994 266.264 -44.581C260.025 -42.9543 253.826 -41.1949 247.65 -39.3626C252.512 -43.6852 257.787 -47.6296 263.416 -51.1521C267.17 -53.5502 270.923 -55.8202 274.61 -58.342C278.363 -60.9789 281.697 -63.282 285.698 -67.5323C290.4 -72.7065 292.26 -76.5943 293.398 -79.9804C294.469 -83.3068 294.667 -86.1691 294.855 -88.8325C295.02 -91.2969 295.16 -93.7768 295.27 -95.629C295.375 -97.3839 295.32 -98.5023 295.32 -98.5023C287.705 -95.2223 282.039 -92.1965 275.683 -89.416L266.386 -85.1082L261.907 -82.9333C260.317 -82.2114 258.79 -81.387 257.337 -80.4667C250.806 -76.4131 248.165 -70.7416 246.769 -65.1607C245.373 -59.5798 245.235 -54.0851 244.672 -50.9023C244.196 -48.0821 243.333 -43.403 242.234 -39.3626C242.074 -38.757 241.909 -38.1779 241.734 -37.6121C225.911 -32.7464 210.443 -27.0213 195.42 -20.4694C202.927 -30.8067 209.757 -38.1846 216.734 -45.3237C224.437 -53.2496 232.137 -60.8971 238.476 -71.356C239.542 -73.1242 240.478 -74.8239 241.344 -76.5479C243.392 -80.7794 244.761 -85.2431 245.41 -89.8094C246.046 -94.4929 245.778 -98.089 245.44 -101.203C245.102 -104.317 244.582 -106.892 244.171 -108.738C243.969 -109.727 243.691 -110.702 243.338 -111.658C235.986 -104.93 230.956 -99.1433 224.99 -93.7901C222.074 -91.098 219.186 -88.5297 216.206 -86.1404C212.829 -83.3165 209.661 -80.3043 206.721 -77.1226C200.385 -70.2597 198.168 -62.8421 197.149 -55.9727C196.178 -49.1209 196.398 -42.7907 196.051 -39.0156C195.73 -35.7002 195.207 -30.1591 194.401 -25.4425C194.049 -23.1924 193.668 -21.1435 193.36 -19.5941C185.411 -16.0577 177.62 -12.2399 169.987 -8.14061C163.706 -4.7965 157.589 -1.19821 151.596 2.55479C157.942 -23.356 172.317 -34.8648 183.46 -56.0169C191.293 -70.7526 192.262 -81.1496 191.243 -88.2136C190.255 -95.2289 187.117 -98.7742 187.117 -98.7742C177.374 -82.0492 163.638 -76.1014 151.028 -59.2991C138.555 -42.4503 144.579 -23.9572 145.97 -16.1307C146.901 -11.0471 148.948 -1.39934 150.007 3.54057C137.804 11.2799 126.337 19.8873 115.722 29.2767C114.221 18.157 117.071 8.43628 120.304 -0.685425C123.996 -11.3543 129.206 -21.937 129.814 -36.6727C130.622 -54.6178 125.232 -65.5209 120.144 -71.3737C115.004 -77.2905 110.112 -78.599 110.112 -78.599C111.403 -68.9314 109.521 -61.2043 106.858 -53.5988C105.45 -49.8414 103.918 -45.7635 102.484 -41.9331C100.935 -37.8398 99.6387 -33.3971 98.1772 -29.3679C95.2167 -20.392 95.6747 -11.5378 97.5466 -3.69138C99.4185 4.15501 102.737 10.5404 104.486 14.3222C106.53 18.7673 108.886 23.0954 111.541 27.2809C112.394 28.6225 113.217 29.8249 113.961 30.8703C106.045 37.9725 98.6828 45.5393 91.9234 53.5188C89.0472 56.9609 86.2861 60.4825 83.6401 64.0838C84.088 56.6374 83.9679 50.0487 83.8253 43.8688C83.5325 35.6909 83.1921 28.2401 82.5565 20.9397C81.9409 13.6657 81.0825 6.39621 79.6386 -0.818054C78.3298 -7.66983 76.8858 -14.9504 74.1906 -23.0642C70.6145 -33.8569 65.5895 -42.4503 60.1089 -48.5683C54.6485 -54.7194 48.9177 -58.3376 44.248 -60.2605C39.4707 -62.1591 35.827 -62.4995 33.3646 -62.3868C30.9446 -62.3028 29.7634 -61.8784 29.7634 -61.8784C39.6584 -54.116 42.8916 -44.654 44.4857 -35.5765C46.0824 -26.3089 45.9447 -16.8379 47.8366 -4.54232C49.9237 8.3125 55.209 17.1911 60.0639 25.2032C64.9813 33.0784 69.9488 39.6318 72.3262 43.9749C74.4859 47.7964 77.8017 54.2482 79.8863 60.2667C80.7021 62.5366 81.3453 64.7225 81.8333 66.5659C75.5738 75.2498 70.1382 84.3761 65.5819 93.8515C63.5466 98.0907 61.6814 102.383 59.9863 106.728C59.9863 106.408 59.9863 106.085 59.9863 105.767C59.8537 99.1958 59.4183 92.9165 58.4022 86.6438C57.4815 80.0981 55.9421 73.6319 53.8001 67.313C51.5478 60.6336 48.4522 53.6094 43.5773 46.205C38.9406 39.1034 32.7693 32.8756 25.4141 27.8754C19.2267 23.6968 12.3487 20.3832 5.02109 18.0509C-8.10961 13.8867 -19.1507 13.5154 -25.6397 13.2126C-31.4581 12.8899 -40.7574 13.0889 -47.9471 14.3178C-55.237 15.4428 -59.9993 17.4364 -59.9993 17.4364C-49.789 16.5943 -39.1808 19.0477 -30.3595 22.4736C-21.8678 25.8015 -13.959 30.1854 -6.87337 35.492C7.00058 45.6812 15.9371 57.0972 25.9546 72.8165C39.0178 93.6967 45.2715 106.258 50.1239 114.57C51.9808 117.972 53.5749 120.657 54.7811 122.673C53.3643 128.056 52.337 133.513 51.7055 139.011V139.027C51.6429 139.634 51.8557 140.238 52.2973 140.707C52.7388 141.176 53.3729 141.47 54.0604 141.527C54.7464 141.582 55.4293 141.395 55.9594 141.006C56.4895 140.617 56.8235 140.059 56.8882 139.453L56.9082 139.25C57.3562 135.082 58.0495 130.937 58.9853 126.833L60.3642 126.002L63.2046 124.875C65.0893 124.079 67.0551 123.444 69.0755 122.976C71.1275 122.472 73.0394 121.902 75.1441 121.586C83.3198 120.074 91.3178 119.596 99.1882 119.477C114.954 119.227 130.365 120.361 149.181 119.143C174.264 117.554 189.251 111.951 197.437 106.859C205.67 101.638 207.329 97.2199 207.329 97.2199C179.521 101.437 162.912 93.8006 133.433 92.6933C103.745 91.3671 81.7582 105.683 72.9268 111.613C69.4033 113.823 64.2506 117.554 60.3917 121.181C62.835 112.415 66.0626 103.835 70.0439 95.5202C70.8781 93.7181 71.7531 91.9329 72.6691 90.1647C76.4228 86.7499 81.2352 84.2391 86.4454 82.7958C94.4159 80.4529 102.779 79.9666 111.053 80.3181C119.491 80.6187 127.319 81.8122 137.314 82.6256C146.14 83.2887 155.197 84.1109 165.54 84.5949C193.068 86.1222 211.191 82.2012 220.845 77.5442C225.745 75.2433 228.706 72.9469 230.445 71.2185C232.184 69.4901 232.737 68.4225 232.737 68.4225C217.342 70.1332 205.082 67.9561 192.975 65.2044C180.803 62.4239 168.638 58.7261 151.934 56.6463C147.871 56.1461 143.773 55.9098 139.671 55.939C137.574 55.9545 135.968 55.9898 134.316 56.0782C132.524 56.1468 130.777 56.2529 128.956 56.3987C122.011 56.9236 115.16 58.1615 108.54 60.0876C99.116 62.8928 90.4178 67.3257 82.9519 73.1281C82.8118 73.2298 82.6566 73.3492 82.514 73.4641C86.518 67.4095 90.8624 61.5412 95.5471 55.8594C100.114 50.3493 105.029 45.0712 110.169 39.9721C124.821 36.0909 138.738 37.1585 151.446 39.0482C166.583 41.3182 181.005 45.2966 200.355 46.5896C211.456 47.3301 221.992 47.6108 230.385 46.4438C238.869 45.3386 245.4 43.1173 249.837 40.5645C254.274 38.0117 256.626 35.3505 257.733 33.4011C258.839 31.4516 258.924 30.3465 258.924 30.3465C252.918 32.3357 246.804 32.402 241.241 31.7169C235.638 31.0317 230.445 29.6392 225.225 28.0302C220.005 26.4211 214.794 24.549 208.813 22.8162C205.9 21.9321 202.327 21.1828 199.414 20.4402C196.451 19.7152 193.223 18.9725 189.769 18.2852C175.983 15.4649 162.772 16.2959 151.886 18.7272C140.98 21.0988 132.672 25.0596 127.767 27.2566C125.395 28.2534 122.341 29.7497 119.231 31.4273C131.178 20.7909 144.219 11.1584 158.185 2.65427C163.633 0.165512 170.643 -0.336197 177.081 0.490433C184.879 1.53809 192.117 3.95389 199.021 6.98856C202.482 8.47606 205.89 10.1559 209.434 11.8799L215.115 14.5874L220.798 17.1115C228.383 20.4269 236.626 23.7865 246.474 26.4697C259.549 30.0702 271.456 30.8084 280.838 29.668C290.293 28.5473 297.067 25.4972 301.359 22.6769C303.159 21.3959 304.813 19.9619 306.296 18.3957C307.24 17.2659 308.052 16.0544 308.719 14.7797C309.735 12.7905 309.817 11.6566 309.817 11.6566C297.077 16.5192 285.475 14.6626 275.518 11.1792C265.338 7.6207 256.088 2.38902 243.293 -3.37089C237.244 -6.10611 230.864 -8.22746 224.274 -9.69441C218.393 -11.0869 211.761 -12.1611 205.905 -12.4219C195.395 -12.9744 186.676 -11.4007 181.025 -10.0679C193.592 -16.4203 206.583 -22.0941 219.927 -27.0581C231.359 -26.4636 240.53 -21.8663 248.523 -16.6434C257.948 -10.4547 268.083 -2.30775 283.191 2.80676C293.241 6.23267 302.085 7.08801 309.032 6.66808C315.979 6.24812 321.181 4.61917 324.893 2.83551C328.213 1.19992 330.358 -0.539551 331.779 -1.98505C333.489 -1.40131 335.251 -0.944427 337.047 -0.619125C343.669 0.629669 349.144 -0.250015 352.763 -1.77288C356.432 -3.28248 358.469 -5.2938 359.642 -6.81887C360.816 -8.34395 361.144 -9.36066 361.144 -9.36066C352.533 -9.12637 346.787 -13.4187 343.058 -18.279C339.247 -23.1924 336.427 -29.233 331.016 -35.7135C326.437 -41.7629 318.414 -46.1569 310.788 -48.0909C307.546 -48.9482 304.21 -49.5023 300.836 -49.7442C309.386 -51.4461 317.978 -52.9815 326.612 -54.3503C336.139 -52.0207 342.563 -46.5437 348.073 -40.7241C354.3 -34.2879 359.953 -26.6249 371.312 -20.297C378.864 -16.1881 386.217 -14.4442 392.115 -14.484C397.991 -14.2807 402.508 -15.8389 405.671 -17.3132C412.063 -20.7192 413.759 -24.7064 413.759 -24.7064C405.521 -25.1662 399.628 -28.5655 395.011 -32.6633C390.333 -36.8628 387.022 -41.8138 381.96 -47.0035C376.955 -52.2086 369.878 -54.9957 362.673 -56.4191C357.843 -57.3894 353.176 -57.5928 349.455 -57.6259C351.437 -57.8779 353.416 -58.1431 355.398 -58.3818C364.963 -58.7797 373.506 -57.9508 381.745 -56.7286C394.778 -54.7902 407.118 -51.7953 422.716 -50.6283C443.412 -49.0347 457.398 -52.7037 465.086 -57.6878C468.89 -60.1567 470.942 -62.7272 471.612 -64.7098C472.308 -66.6128 472.088 -67.6295 472.088 -67.6295ZM308.011 -11.9201C300.686 -15.9273 294.204 -20.7899 285.761 -25.9972C281.756 -28.4799 277.384 -30.4642 272.768 -31.8942C268.295 -33.3144 263.654 -34.2785 258.934 -34.7675C252.64 -35.4438 246.959 -35.0968 242.537 -34.6062C242.665 -34.7299 242.8 -34.8692 242.925 -34.9907C250.92 -37.5193 258.982 -39.8666 267.112 -42.0326C270.595 -42.9476 274.099 -43.8008 277.605 -44.6517C280.34 -44.0584 282.936 -43.0438 285.273 -41.6546C289.369 -39.2698 292.703 -36.129 295.711 -32.7783C298.719 -29.4275 301.424 -25.7828 304.617 -21.948C306.336 -19.8539 308.183 -17.844 310.15 -15.9273C312.219 -13.9236 314.413 -12.0235 316.722 -10.2359C318.549 -8.81806 320.478 -7.50611 322.498 -6.3083C317.107 -7.52837 312.392 -9.55075 308.011 -11.9201Z" fill="#6E9277"/>
<g style="mix-blend-mode:multiply">
<path d="M196.338 311C192.158 300.404 194.085 288.948 195.935 277.871C196.348 275.417 196.77 272.882 197.118 270.411C198.83 258.232 198.285 241.879 185.965 233.124C173.797 224.482 156.17 227.254 140.622 229.7C139.263 229.921 137.919 230.125 136.588 230.328C112.175 234.048 90.326 232.994 71.6447 227.196C49.5725 220.344 31.8547 206.179 24.2721 189.279C15.7385 170.271 20.6835 148.113 36.2992 135.387C43.1411 129.812 51.6521 126.137 59.8854 122.585C64.2148 120.715 68.6918 118.783 72.871 116.597C84.3425 110.599 96.0392 99.7994 94.4677 87.4596C93.6669 81.1648 89.5552 75.6436 85.5787 70.3036C81.87 65.3239 78.0362 60.174 76.7348 54.297C73.2463 38.5556 89.8505 23.853 107.546 19.9806C121.079 17.0277 135.266 18.418 148.982 19.7596C153.059 20.1574 157.276 20.5708 161.397 20.8647C184.323 22.4826 201.17 18.5661 211.465 9.22775C220.559 0.979095 224.916 -11.8801 224.413 -28.9941C224.283 -33.4434 223.893 -37.981 223.512 -42.3683C222.717 -51.5652 221.896 -61.0759 223.432 -70.3546C227.499 -94.9171 248.43 -117.692 279.421 -131.274C307.211 -143.452 338.268 -147.289 368.3 -151L368.445 -150.085C338.495 -146.385 307.522 -142.559 279.884 -130.445C249.201 -116.997 228.485 -94.4839 224.466 -70.2242C222.947 -61.045 223.763 -51.5873 224.553 -42.4391C224.934 -38.0407 225.327 -33.4942 225.459 -29.0206C225.96 -11.6481 221.513 1.43661 212.214 9.87978C201.703 19.4214 184.566 23.4286 161.315 21.793C157.176 21.5013 152.951 21.088 148.867 20.6879C135.241 19.3618 121.149 17.9715 107.796 20.8846C90.5662 24.6421 74.3875 38.9026 77.7659 54.1356C79.0171 59.8337 82.8059 64.9062 86.4571 69.813C90.5012 75.2413 94.6829 80.8642 95.5112 87.3712C97.5583 103.446 79.1122 114.425 73.409 117.409C69.1923 119.619 64.6977 121.553 60.3509 123.429C52.1852 126.952 43.7417 130.597 37.0124 136.081C21.707 148.553 16.8697 170.298 25.2506 188.954C32.7306 205.611 50.2057 219.586 72.0001 226.341C90.5187 232.087 112.185 233.117 136.417 229.435C137.752 229.232 139.094 229.023 140.444 228.807C156.21 226.33 174.088 223.516 186.625 232.423C199.323 241.443 199.909 258.131 198.162 270.541C197.814 273.023 197.389 275.565 196.976 278.023C195.139 288.993 193.239 300.333 197.331 310.715L196.338 311Z" fill="#6E9277"/>
</g>
</g>
</svg>
